<svg width="200" height="68" viewBox="0 0 200 68" fill="none" xmlns="http://www.w3.org/2000/svg">
<path d="M69.6709 65.1025C69.1259 65.1025 68.6042 65.026 68.1057 64.8732C67.6073 64.7137 67.2118 64.511 66.9194 64.2651L67.368 63.2582C67.6472 63.4775 67.9927 63.6603 68.4048 63.8065C68.8169 63.9527 69.2389 64.0258 69.6709 64.0258C70.0364 64.0258 70.3321 63.9859 70.5581 63.9062C70.7841 63.8264 70.9502 63.7201 71.0566 63.5872C71.1629 63.4476 71.2161 63.2914 71.2161 63.1186C71.2161 62.906 71.1396 62.7365 70.9868 62.6102C70.8339 62.4773 70.6345 62.3743 70.3886 62.3012C70.1494 62.2214 69.8802 62.1483 69.5811 62.0818C69.2887 62.0154 68.993 61.939 68.6939 61.8526C68.4015 61.7595 68.1323 61.6432 67.8864 61.5036C67.6472 61.3574 67.4511 61.1647 67.2982 60.9254C67.1454 60.6862 67.0689 60.3805 67.0689 60.0083C67.0689 59.6295 67.1686 59.2839 67.368 58.9715C67.574 58.6525 67.8831 58.3999 68.2951 58.2139C68.7138 58.0211 69.2422 57.9248 69.8802 57.9248C70.2989 57.9248 70.7143 57.9779 71.1263 58.0843C71.5384 58.1906 71.8973 58.3435 72.203 58.5428L71.7943 59.5497C71.4819 59.3636 71.1596 59.2274 70.8273 59.141C70.495 59.0479 70.176 59.0014 69.8702 59.0014C69.5114 59.0014 69.2189 59.0446 68.993 59.131C68.7737 59.2174 68.6108 59.3304 68.5045 59.47C68.4048 59.6095 68.355 59.769 68.355 59.9485C68.355 60.1611 68.4281 60.3339 68.5743 60.4669C68.7271 60.5931 68.9232 60.6928 69.1624 60.7659C69.4083 60.839 69.6808 60.9121 69.9799 60.9852C70.279 61.0517 70.5747 61.1281 70.8672 61.2145C71.1662 61.3009 71.4354 61.4139 71.6746 61.5535C71.9205 61.6931 72.1166 61.8825 72.2628 62.1217C72.4157 62.361 72.4921 62.6634 72.4921 63.0289C72.4921 63.4011 72.3891 63.7467 72.1831 64.0657C71.9837 64.378 71.6746 64.6306 71.2559 64.8233C70.8372 65.0094 70.3089 65.1025 69.6709 65.1025ZM75.9106 65.0726C75.4586 65.0726 75.0599 64.9895 74.7143 64.8233C74.3687 64.6505 74.0995 64.3913 73.9068 64.0457C73.714 63.6935 73.6177 63.2515 73.6177 62.7199V59.6793H74.8638V62.5504C74.8638 63.0289 74.9701 63.3878 75.1828 63.627C75.4021 63.8597 75.7112 63.976 76.1099 63.976C76.4024 63.976 76.6549 63.9161 76.8676 63.7965C77.0869 63.6769 77.2564 63.4974 77.376 63.2582C77.5023 63.0189 77.5654 62.7232 77.5654 62.3709V59.6793H78.8115V65.0028H77.6252V63.5672L77.8346 64.0059C77.6551 64.3515 77.3926 64.6173 77.047 64.8034C76.7014 64.9828 76.3226 65.0726 75.9106 65.0726ZM80.4431 65.0028V57.6057H81.6892V65.0028H80.4431ZM85.5914 65.0726C85.0066 65.0726 84.5546 64.923 84.2356 64.6239C83.9166 64.3182 83.7571 63.8696 83.7571 63.2781V58.503H85.0033V63.2482C85.0033 63.5008 85.0664 63.6968 85.1927 63.8364C85.3256 63.976 85.5084 64.0457 85.741 64.0457C86.0201 64.0457 86.2527 63.9726 86.4388 63.8264L86.7877 64.7137C86.6415 64.8333 86.4621 64.923 86.2494 64.9828C86.0367 65.0426 85.8174 65.0726 85.5914 65.0726ZM82.8798 60.7161V59.7192H86.4288V60.7161H82.8798ZM91.0926 65.0028V63.9261L91.0228 63.6968V61.8127C91.0228 61.4471 90.9132 61.1647 90.6939 60.9653C90.4745 60.7593 90.1422 60.6563 89.697 60.6563C89.3979 60.6563 89.1021 60.7028 88.8097 60.7958C88.5239 60.8889 88.2814 61.0185 88.082 61.1846L87.5935 60.2774C87.8793 60.0581 88.2182 59.8953 88.6103 59.789C89.0091 59.676 89.4212 59.6195 89.8465 59.6195C90.6174 59.6195 91.2123 59.8056 91.631 60.1778C92.0563 60.5433 92.269 61.1115 92.269 61.8825V65.0028H91.0926ZM89.4178 65.0726C89.0191 65.0726 88.6701 65.0061 88.3711 64.8732C88.072 64.7336 87.8394 64.5442 87.6732 64.3049C87.5137 64.059 87.434 63.7832 87.434 63.4775C87.434 63.1784 87.5038 62.9093 87.6433 62.67C87.7896 62.4308 88.0255 62.2413 88.3511 62.1018C88.6768 61.9622 89.1088 61.8924 89.6471 61.8924H91.1923V62.7199H89.7368C89.3115 62.7199 89.0257 62.7896 88.8795 62.9292C88.7333 63.0621 88.6602 63.2283 88.6602 63.4277C88.6602 63.6536 88.7499 63.8331 88.9293 63.966C89.1088 64.0989 89.358 64.1654 89.677 64.1654C89.9827 64.1654 90.2552 64.0956 90.4945 63.956C90.7404 63.8165 90.9165 63.6104 91.0228 63.3379L91.2322 64.0856C91.1126 64.398 90.8966 64.6406 90.5842 64.8134C90.2785 64.9862 89.8897 65.0726 89.4178 65.0726ZM96.8888 59.6195C97.3142 59.6195 97.693 59.7026 98.0253 59.8687C98.3643 60.0349 98.6301 60.2907 98.8228 60.6363C99.0156 60.9753 99.1119 61.4139 99.1119 61.9522V65.0028H97.8658V62.1118C97.8658 61.6399 97.7528 61.2876 97.5269 61.055C97.3075 60.8224 96.9985 60.7061 96.5997 60.7061C96.3073 60.7061 96.0481 60.7659 95.8222 60.8856C95.5962 61.0052 95.4201 61.1846 95.2938 61.4239C95.1742 61.6565 95.1144 61.9522 95.1144 62.3111V65.0028H93.8682V59.6793H95.0545V61.1148L94.8452 60.6762C95.0313 60.3373 95.3004 60.0781 95.6527 59.8986C96.0116 59.7125 96.4236 59.6195 96.8888 59.6195ZM106.827 65.1025C106.282 65.1025 105.781 65.0161 105.322 64.8433C104.87 64.6638 104.475 64.4146 104.136 64.0956C103.797 63.7699 103.534 63.3878 103.348 62.9492C103.162 62.5105 103.069 62.032 103.069 61.5136C103.069 60.9952 103.162 60.5167 103.348 60.0781C103.534 59.6394 103.797 59.2606 104.136 58.9416C104.481 58.6159 104.883 58.3667 105.342 58.1939C105.801 58.0145 106.302 57.9248 106.847 57.9248C107.439 57.9248 107.97 58.0211 108.442 58.2139C108.921 58.4066 109.323 58.689 109.649 59.0612L108.831 59.8587C108.559 59.5863 108.263 59.3869 107.944 59.2606C107.632 59.1277 107.286 59.0612 106.907 59.0612C106.542 59.0612 106.203 59.121 105.89 59.2407C105.578 59.3603 105.309 59.5298 105.083 59.7491C104.857 59.9684 104.681 60.2276 104.554 60.5267C104.435 60.8257 104.375 61.1547 104.375 61.5136C104.375 61.8658 104.435 62.1915 104.554 62.4906C104.681 62.7896 104.857 63.0522 105.083 63.2781C105.309 63.4974 105.575 63.6669 105.88 63.7866C106.186 63.9062 106.525 63.966 106.897 63.966C107.243 63.966 107.575 63.9128 107.894 63.8065C108.22 63.6935 108.529 63.5074 108.821 63.2482L109.559 64.2152C109.193 64.5076 108.768 64.7303 108.283 64.8831C107.804 65.0294 107.319 65.1025 106.827 65.1025ZM108.333 64.0457V61.4339H109.559V64.2152L108.333 64.0457ZM111.149 65.0028V57.6057H112.395V65.0028H111.149ZM116.423 65.0726C115.878 65.0726 115.393 64.9563 114.967 64.7236C114.542 64.4844 114.206 64.1587 113.96 63.7467C113.715 63.3346 113.592 62.8661 113.592 62.341C113.592 61.8094 113.715 61.3408 113.96 60.9354C114.206 60.5234 114.542 60.201 114.967 59.9684C115.393 59.7358 115.878 59.6195 116.423 59.6195C116.974 59.6195 117.463 59.7358 117.888 59.9684C118.32 60.201 118.656 60.52 118.895 60.9254C119.141 61.3308 119.264 61.8027 119.264 62.341C119.264 62.8661 119.141 63.3346 118.895 63.7467C118.656 64.1587 118.32 64.4844 117.888 64.7236C117.463 64.9563 116.974 65.0726 116.423 65.0726ZM116.423 64.0059C116.729 64.0059 117.001 63.9394 117.24 63.8065C117.48 63.6736 117.666 63.4808 117.799 63.2283C117.938 62.9757 118.008 62.68 118.008 62.341C118.008 61.9954 117.938 61.6997 117.799 61.4538C117.666 61.2012 117.48 61.0085 117.24 60.8756C117.001 60.7427 116.732 60.6762 116.433 60.6762C116.127 60.6762 115.855 60.7427 115.615 60.8756C115.383 61.0085 115.197 61.2012 115.057 61.4538C114.917 61.6997 114.848 61.9954 114.848 62.341C114.848 62.68 114.917 62.9757 115.057 63.2283C115.197 63.4808 115.383 63.6736 115.615 63.8065C115.855 63.9394 116.124 64.0059 116.423 64.0059ZM123.406 65.0726C122.954 65.0726 122.552 64.9729 122.2 64.7735C121.848 64.5741 121.569 64.275 121.363 63.8763C121.163 63.4709 121.064 62.9591 121.064 62.341C121.064 61.7163 121.167 61.2046 121.373 60.8058C121.585 60.407 121.868 60.1113 122.22 59.9186C122.579 59.7192 122.974 59.6195 123.406 59.6195C123.931 59.6195 124.393 59.7325 124.792 59.9584C125.198 60.1844 125.517 60.5001 125.749 60.9055C125.988 61.3109 126.108 61.7894 126.108 62.341C126.108 62.8927 125.988 63.3712 125.749 63.7766C125.517 64.182 125.198 64.501 124.792 64.7336C124.393 64.9596 123.931 65.0726 123.406 65.0726ZM120.456 65.0028V57.6057H121.702V60.9155L121.602 62.3311L121.642 63.7467V65.0028H120.456ZM123.267 64.0059C123.566 64.0059 123.832 63.9394 124.064 63.8065C124.304 63.6736 124.493 63.4808 124.633 63.2283C124.772 62.9757 124.842 62.68 124.842 62.341C124.842 61.9954 124.772 61.6997 124.633 61.4538C124.493 61.2012 124.304 61.0085 124.064 60.8756C123.832 60.7427 123.566 60.6762 123.267 60.6762C122.968 60.6762 122.699 60.7427 122.459 60.8756C122.22 61.0085 122.031 61.2012 121.891 61.4538C121.752 61.6997 121.682 61.9954 121.682 62.341C121.682 62.68 121.752 62.9757 121.891 63.2283C122.031 63.4808 122.22 63.6736 122.459 63.8065C122.699 63.9394 122.968 64.0059 123.267 64.0059ZM130.501 65.0028V63.9261L130.432 63.6968V61.8127C130.432 61.4471 130.322 61.1647 130.103 60.9653C129.883 60.7593 129.551 60.6563 129.106 60.6563C128.807 60.6563 128.511 60.7028 128.219 60.7958C127.933 60.8889 127.69 61.0185 127.491 61.1846L127.002 60.2774C127.288 60.0581 127.627 59.8953 128.019 59.789C128.418 59.676 128.83 59.6195 129.255 59.6195C130.026 59.6195 130.621 59.8056 131.04 60.1778C131.465 60.5433 131.678 61.1115 131.678 61.8825V65.0028H130.501ZM128.827 65.0726C128.428 65.0726 128.079 65.0061 127.78 64.8732C127.481 64.7336 127.248 64.5442 127.082 64.3049C126.923 64.059 126.843 63.7832 126.843 63.4775C126.843 63.1784 126.913 62.9093 127.052 62.67C127.198 62.4308 127.434 62.2413 127.76 62.1018C128.086 61.9622 128.518 61.8924 129.056 61.8924H130.601V62.7199H129.146C128.72 62.7199 128.435 62.7896 128.288 62.9292C128.142 63.0621 128.069 63.2283 128.069 63.4277C128.069 63.6536 128.159 63.8331 128.338 63.966C128.518 64.0989 128.767 64.1654 129.086 64.1654C129.392 64.1654 129.664 64.0956 129.903 63.956C130.149 63.8165 130.325 63.6104 130.432 63.3379L130.641 64.0856C130.521 64.398 130.305 64.6406 129.993 64.8134C129.687 64.9862 129.299 65.0726 128.827 65.0726ZM133.277 65.0028V57.6057H134.523V65.0028H133.277ZM143.938 58.0244H145.234V65.0028H143.938V58.0244ZM140.329 65.0028H139.034V58.0244H140.329V65.0028ZM144.038 62.0121H140.22V60.9055H144.038V62.0121ZM149.487 65.0726C148.895 65.0726 148.377 64.9563 147.932 64.7236C147.493 64.4844 147.151 64.1587 146.905 63.7467C146.666 63.3346 146.546 62.8661 146.546 62.341C146.546 61.8094 146.662 61.3408 146.895 60.9354C147.134 60.5234 147.46 60.201 147.872 59.9684C148.29 59.7358 148.766 59.6195 149.297 59.6195C149.816 59.6195 150.278 59.7325 150.683 59.9584C151.088 60.1844 151.407 60.5034 151.64 60.9155C151.873 61.3275 151.989 61.8127 151.989 62.3709C151.989 62.4241 151.986 62.4839 151.979 62.5504C151.979 62.6168 151.976 62.68 151.969 62.7398H147.533V61.9124H151.311L150.823 62.1716C150.829 61.8658 150.766 61.5967 150.633 61.3641C150.5 61.1315 150.318 60.9487 150.085 60.8158C149.859 60.6829 149.596 60.6164 149.297 60.6164C148.992 60.6164 148.722 60.6829 148.49 60.8158C148.264 60.9487 148.084 61.1348 147.952 61.374C147.825 61.6067 147.762 61.8825 147.762 62.2015V62.4009C147.762 62.7199 147.835 63.0023 147.981 63.2482C148.128 63.4941 148.334 63.6835 148.6 63.8165C148.865 63.9494 149.171 64.0158 149.517 64.0158C149.816 64.0158 150.085 63.9693 150.324 63.8763C150.563 63.7832 150.776 63.637 150.962 63.4376L151.63 64.2052C151.391 64.4844 151.088 64.7004 150.723 64.8532C150.364 64.9995 149.952 65.0726 149.487 65.0726ZM156.32 65.0028V63.9261L156.25 63.6968V61.8127C156.25 61.4471 156.14 61.1647 155.921 60.9653C155.702 60.7593 155.369 60.6563 154.924 60.6563C154.625 60.6563 154.329 60.7028 154.037 60.7958C153.751 60.8889 153.508 61.0185 153.309 61.1846L152.821 60.2774C153.106 60.0581 153.445 59.8953 153.837 59.789C154.236 59.676 154.648 59.6195 155.074 59.6195C155.845 59.6195 156.439 59.8056 156.858 60.1778C157.283 60.5433 157.496 61.1115 157.496 61.8825V65.0028H156.32ZM154.645 65.0726C154.246 65.0726 153.897 65.0061 153.598 64.8732C153.299 64.7336 153.067 64.5442 152.9 64.3049C152.741 64.059 152.661 63.7832 152.661 63.4775C152.661 63.1784 152.731 62.9093 152.87 62.67C153.017 62.4308 153.253 62.2413 153.578 62.1018C153.904 61.9622 154.336 61.8924 154.874 61.8924H156.419V62.7199H154.964C154.539 62.7199 154.253 62.7896 154.107 62.9292C153.96 63.0621 153.887 63.2283 153.887 63.4277C153.887 63.6536 153.977 63.8331 154.156 63.966C154.336 64.0989 154.585 64.1654 154.904 64.1654C155.21 64.1654 155.482 64.0956 155.722 63.956C155.968 63.8165 156.144 63.6104 156.25 63.3379L156.459 64.0856C156.34 64.398 156.124 64.6406 155.811 64.8134C155.506 64.9862 155.117 65.0726 154.645 65.0726ZM159.095 65.0028V57.6057H160.341V65.0028H159.095ZM164.244 65.0726C163.659 65.0726 163.207 64.923 162.888 64.6239C162.569 64.3182 162.409 63.8696 162.409 63.2781V58.503H163.655V63.2482C163.655 63.5008 163.719 63.6968 163.845 63.8364C163.978 63.976 164.161 64.0457 164.393 64.0457C164.672 64.0457 164.905 63.9726 165.091 63.8264L165.44 64.7137C165.294 64.8333 165.114 64.923 164.902 64.9828C164.689 65.0426 164.47 65.0726 164.244 65.0726ZM161.532 60.7161V59.7192H165.081V60.7161H161.532ZM169.486 59.6195C169.911 59.6195 170.29 59.7026 170.622 59.8687C170.961 60.0349 171.227 60.2907 171.42 60.6363C171.612 60.9753 171.709 61.4139 171.709 61.9522V65.0028H170.463V62.1118C170.463 61.6399 170.35 61.2876 170.124 61.055C169.904 60.8224 169.595 60.7061 169.197 60.7061C168.904 60.7061 168.645 60.7659 168.419 60.8856C168.193 61.0052 168.017 61.1846 167.891 61.4239C167.771 61.6565 167.711 61.9522 167.711 62.3111V65.0028H166.465V57.6057H167.711V61.1148L167.442 60.6762C167.628 60.3373 167.897 60.0781 168.25 59.8986C168.608 59.7125 169.02 59.6195 169.486 59.6195ZM179.394 65.1025C178.863 65.1025 178.367 65.0161 177.909 64.8433C177.457 64.6638 177.062 64.4146 176.723 64.0956C176.39 63.7699 176.131 63.3878 175.945 62.9492C175.759 62.5105 175.666 62.032 175.666 61.5136C175.666 60.9952 175.759 60.5167 175.945 60.0781C176.131 59.6394 176.394 59.2606 176.733 58.9416C177.071 58.6159 177.467 58.3667 177.919 58.1939C178.371 58.0145 178.866 57.9248 179.404 57.9248C179.976 57.9248 180.498 58.0244 180.969 58.2238C181.441 58.4166 181.84 58.7057 182.166 59.0911L181.328 59.8787C181.076 59.6062 180.793 59.4035 180.481 59.2706C180.169 59.131 179.83 59.0612 179.464 59.0612C179.099 59.0612 178.763 59.121 178.457 59.2407C178.158 59.3603 177.896 59.5298 177.67 59.7491C177.45 59.9684 177.278 60.2276 177.151 60.5267C177.032 60.8257 176.972 61.1547 176.972 61.5136C176.972 61.8725 177.032 62.2015 177.151 62.5005C177.278 62.7996 177.45 63.0588 177.67 63.2781C177.896 63.4974 178.158 63.6669 178.457 63.7866C178.763 63.9062 179.099 63.966 179.464 63.966C179.83 63.966 180.169 63.8995 180.481 63.7666C180.793 63.627 181.076 63.4177 181.328 63.1386L182.166 63.9361C181.84 64.3149 181.441 64.604 180.969 64.8034C180.498 65.0028 179.972 65.1025 179.394 65.1025ZM186.519 65.0028V63.9261L186.449 63.6968V61.8127C186.449 61.4471 186.34 61.1647 186.12 60.9653C185.901 60.7593 185.569 60.6563 185.123 60.6563C184.824 60.6563 184.528 60.7028 184.236 60.7958C183.95 60.8889 183.708 61.0185 183.508 61.1846L183.02 60.2774C183.306 60.0581 183.645 59.8953 184.037 59.789C184.435 59.676 184.847 59.6195 185.273 59.6195C186.044 59.6195 186.639 59.8056 187.057 60.1778C187.483 60.5433 187.695 61.1115 187.695 61.8825V65.0028H186.519ZM184.844 65.0726C184.445 65.0726 184.096 65.0061 183.797 64.8732C183.498 64.7336 183.266 64.5442 183.1 64.3049C182.94 64.059 182.86 63.7832 182.86 63.4775C182.86 63.1784 182.93 62.9093 183.07 62.67C183.216 62.4308 183.452 62.2413 183.777 62.1018C184.103 61.9622 184.535 61.8924 185.073 61.8924H186.619V62.7199H185.163C184.738 62.7199 184.452 62.7896 184.306 62.9292C184.16 63.0621 184.086 63.2283 184.086 63.4277C184.086 63.6536 184.176 63.8331 184.356 63.966C184.535 64.0989 184.784 64.1654 185.103 64.1654C185.409 64.1654 185.682 64.0956 185.921 63.956C186.167 63.8165 186.343 63.6104 186.449 63.3379L186.659 64.0856C186.539 64.398 186.323 64.6406 186.011 64.8134C185.705 64.9862 185.316 65.0726 184.844 65.0726ZM189.295 65.0028V59.6793H190.481V61.1448L190.341 60.7161C190.501 60.3572 190.75 60.0847 191.089 59.8986C191.435 59.7125 191.863 59.6195 192.375 59.6195V60.8058C192.322 60.7925 192.272 60.7859 192.225 60.7859C192.179 60.7792 192.132 60.7759 192.086 60.7759C191.614 60.7759 191.239 60.9155 190.959 61.1946C190.68 61.4671 190.541 61.8758 190.541 62.4208V65.0028H189.295ZM195.886 65.0726C195.294 65.0726 194.776 64.9563 194.33 64.7236C193.892 64.4844 193.55 64.1587 193.304 63.7467C193.064 63.3346 192.945 62.8661 192.945 62.341C192.945 61.8094 193.061 61.3408 193.294 60.9354C193.533 60.5234 193.859 60.201 194.271 59.9684C194.689 59.7358 195.165 59.6195 195.696 59.6195C196.215 59.6195 196.677 59.7325 197.082 59.9584C197.487 60.1844 197.806 60.5034 198.039 60.9155C198.272 61.3275 198.388 61.8127 198.388 62.3709C198.388 62.4241 198.385 62.4839 198.378 62.5504C198.378 62.6168 198.375 62.68 198.368 62.7398H193.932V61.9124H197.71L197.221 62.1716C197.228 61.8658 197.165 61.5967 197.032 61.3641C196.899 61.1315 196.716 60.9487 196.484 60.8158C196.258 60.6829 195.995 60.6164 195.696 60.6164C195.391 60.6164 195.121 60.6829 194.889 60.8158C194.663 60.9487 194.483 61.1348 194.35 61.374C194.224 61.6067 194.161 61.8825 194.161 62.2015V62.4009C194.161 62.7199 194.234 63.0023 194.38 63.2482C194.527 63.4941 194.733 63.6835 194.998 63.8165C195.264 63.9494 195.57 64.0158 195.916 64.0158C196.215 64.0158 196.484 63.9693 196.723 63.8763C196.962 63.7832 197.175 63.637 197.361 63.4376L198.029 64.2052C197.79 64.4844 197.487 64.7004 197.122 64.8532C196.763 64.9995 196.351 65.0726 195.886 65.0726Z" fill="#4568DC"/>
<path d="M79.8812 44.5416C77.3539 44.5416 74.9319 44.2106 72.6152 43.5487C70.2985 42.8567 68.4331 41.9691 67.019 40.886L69.5012 35.3801C70.8551 36.3429 72.4497 37.1402 74.285 37.772C76.1504 38.3737 78.0309 38.6746 79.9263 38.6746C81.3705 38.6746 82.5289 38.5392 83.4014 38.2684C84.304 37.9676 84.9659 37.5614 85.3871 37.0499C85.8083 36.5384 86.019 35.9517 86.019 35.2898C86.019 34.4474 85.688 33.7855 85.0261 33.3041C84.3642 32.7926 83.4916 32.3864 82.4085 32.0856C81.3254 31.7546 80.1219 31.4537 78.7981 31.183C77.5043 30.8821 76.1956 30.521 74.8717 30.0998C73.578 29.6786 72.3896 29.137 71.3064 28.4751C70.2233 27.8132 69.3357 26.9407 68.6437 25.8576C67.9818 24.7744 67.6509 23.3904 67.6509 21.7056C67.6509 19.9003 68.1322 18.2606 69.095 16.7863C70.0879 15.282 71.5622 14.0935 73.5178 13.221C75.5036 12.3184 77.9857 11.8671 80.9643 11.8671C82.9501 11.8671 84.9057 12.1078 86.8313 12.5892C88.7569 13.0405 90.4568 13.7325 91.931 14.6652L89.6745 20.2162C88.2003 19.3738 86.726 18.757 85.2517 18.3659C83.7775 17.9447 82.3333 17.7341 80.9192 17.7341C79.5051 17.7341 78.3468 17.8996 77.4442 18.2305C76.5416 18.5615 75.8947 18.9977 75.5036 19.5393C75.1124 20.0508 74.9169 20.6525 74.9169 21.3445C74.9169 22.1569 75.2478 22.8188 75.9097 23.3303C76.5716 23.8116 77.4442 24.2028 78.5273 24.5036C79.6104 24.8045 80.7989 25.1054 82.0926 25.4063C83.4164 25.7071 84.7252 26.0531 86.019 26.4443C87.3428 26.8354 88.5463 27.3619 89.6294 28.0238C90.7125 28.6857 91.585 29.5583 92.247 30.6414C92.939 31.7245 93.285 33.0935 93.285 34.7483C93.285 36.5234 92.7885 38.1481 91.7957 39.6224C90.8028 41.0966 89.3135 42.2851 87.3277 43.1877C85.3721 44.0903 82.8899 44.5416 79.8812 44.5416ZM113.535 44.5416C111.038 44.5416 108.736 44.1504 106.63 43.3682C104.554 42.5558 102.734 41.4125 101.169 39.9383C99.6346 38.464 98.4311 36.734 97.5586 34.7483C96.7162 32.7625 96.295 30.5812 96.295 28.2043C96.295 25.8275 96.7162 23.6462 97.5586 21.6604C98.4311 19.6747 99.6496 17.9447 101.214 16.4704C102.779 14.9962 104.614 13.8679 106.72 13.0856C108.826 12.2733 111.143 11.8671 113.67 11.8671C116.468 11.8671 118.981 12.3335 121.207 13.2662C123.463 14.1989 125.359 15.5528 126.893 17.3279L122.2 21.6604C121.057 20.4569 119.808 19.5694 118.454 18.9977C117.1 18.396 115.626 18.0951 114.031 18.0951C112.497 18.0951 111.098 18.3358 109.834 18.8172C108.57 19.2986 107.472 19.9906 106.54 20.8932C105.637 21.7958 104.93 22.8639 104.418 24.0975C103.937 25.331 103.696 26.7 103.696 28.2043C103.696 29.6786 103.937 31.0325 104.418 32.2661C104.93 33.4997 105.637 34.5828 106.54 35.5155C107.472 36.4181 108.555 37.1101 109.789 37.5915C111.053 38.0729 112.437 38.3136 113.941 38.3136C115.385 38.3136 116.784 38.0879 118.138 37.6366C119.522 37.1552 120.861 36.3579 122.155 35.2447L126.307 40.525C124.592 41.8187 122.591 42.8116 120.304 43.5036C118.048 44.1956 115.791 44.5416 113.535 44.5416ZM119.627 39.5772V27.7079H126.307V40.525L119.627 39.5772ZM154.761 12.4087H162.072V44H154.761V12.4087ZM140.409 44H133.098V12.4087H140.409V44ZM155.302 31.0476H139.868V24.8647H155.302V31.0476ZM184.665 44.5416C182.228 44.5416 179.956 44.1504 177.85 43.3682C175.774 42.5558 173.969 41.4125 172.435 39.9383C170.9 38.464 169.697 36.734 168.824 34.7483C167.982 32.7625 167.561 30.5812 167.561 28.2043C167.561 25.8275 167.982 23.6462 168.824 21.6604C169.697 19.6747 170.9 17.9447 172.435 16.4704C173.999 14.9962 175.819 13.8679 177.895 13.0856C179.971 12.2733 182.243 11.8671 184.71 11.8671C187.448 11.8671 189.915 12.3485 192.112 13.3113C194.338 14.244 196.203 15.628 197.708 17.4633L193.014 21.7958C191.931 20.5622 190.728 19.6446 189.404 19.0429C188.08 18.411 186.636 18.0951 185.071 18.0951C183.597 18.0951 182.243 18.3358 181.009 18.8172C179.776 19.2986 178.708 19.9906 177.805 20.8932C176.903 21.7958 176.196 22.8639 175.684 24.0975C175.203 25.331 174.962 26.7 174.962 28.2043C174.962 29.7087 175.203 31.0777 175.684 32.3112C176.196 33.5448 176.903 34.6129 177.805 35.5155C178.708 36.4181 179.776 37.1101 181.009 37.5915C182.243 38.0729 183.597 38.3136 185.071 38.3136C186.636 38.3136 188.08 38.0127 189.404 37.411C190.728 36.7791 191.931 35.8314 193.014 34.5677L197.708 38.9003C196.203 40.7356 194.338 42.1346 192.112 43.0974C189.915 44.0602 187.433 44.5416 184.665 44.5416Z" fill="#4568DC"/>
<path d="M28.8477 10.8029C44.0434 11.1879 56.2432 23.6277 56.2432 38.9162L56.2344 39.6418C55.8493 54.8373 43.4104 67.0371 28.1221 67.0373L28.1211 67.0363V67.0373L28.1201 67.0363L27.3955 67.0285C12.4412 66.6494 0.387711 54.5961 0.00878906 39.6418L0 38.9162C0 23.385 12.5909 10.7941 28.1221 10.7941L28.8477 10.8029ZM32.3711 57.589C30.9854 57.7301 29.5664 57.8038 28.1221 57.8039L27.3955 57.798C26.2007 57.7777 25.0244 57.7065 23.8711 57.589C23.9251 57.7713 23.9767 57.952 24.0322 58.1291C24.7912 60.5505 25.6487 62.3469 26.4951 63.4894C27.3709 64.6712 27.9457 64.7895 28.1201 64.7902H28.1211C28.2935 64.7902 28.8687 64.6746 29.7471 63.4894C30.5936 62.347 31.4509 60.5506 32.21 58.1291C32.2654 57.952 32.3171 57.7713 32.3711 57.589ZM40.6699 55.8214C38.8197 56.4421 36.8536 56.9297 34.7988 57.2658C34.0467 60.05 33.127 62.3584 32.0889 64.0314C34.8681 62.9528 37.4639 60.7467 39.6123 57.548C39.9813 56.9986 40.3335 56.4219 40.6699 55.8214ZM15.5742 55.8234C15.9104 56.4233 16.2631 56.9991 16.6318 57.548C18.7794 60.7454 21.3733 62.9514 24.1514 64.0304C23.1139 62.3578 22.1962 60.0494 21.4443 57.2668C19.39 56.9307 17.4241 56.4439 15.5742 55.8234ZM4.24219 48.8947C6.86366 55.1607 11.8793 60.175 18.1455 62.796C15.8777 60.6913 13.9302 57.892 12.4404 54.5959C9.14575 53.1066 6.34644 51.1614 4.24219 48.8947ZM52.0029 48.8908C49.8982 51.1589 47.0983 53.1059 43.8018 54.5959C42.3121 57.8916 40.3662 60.6915 38.0986 62.796C44.366 60.1745 49.3819 55.1584 52.0029 48.8908ZM34.3359 46.6916C32.3369 46.8194 30.2574 46.8898 28.1221 46.8898L26.6748 46.88C25.0451 46.8566 23.4522 46.7914 21.9072 46.6925C22.1989 49.8413 22.6591 52.7333 23.252 55.256C24.826 55.4515 26.4535 55.5568 28.1221 55.5568C29.79 55.5568 31.4168 55.4514 32.9902 55.256C33.5832 52.7329 34.0443 49.8407 34.3359 46.6916ZM12.0244 45.4533C12.4793 48.1322 13.2067 50.6328 14.1494 52.8878C16.2021 53.7459 18.4582 54.426 20.8672 54.8839C20.3211 52.3631 19.9014 49.5441 19.6357 46.5187C16.8929 46.2728 14.332 45.911 12.0244 45.4533ZM44.2178 45.4523C41.9104 45.9098 39.35 46.2729 36.6074 46.5187C36.3417 49.5443 35.9201 52.363 35.374 54.8839C37.7838 54.426 40.0405 53.7462 42.0938 52.8878C43.0366 50.6326 43.7629 48.1316 44.2178 45.4523ZM2.83301 42.4074C3.83654 45.3659 6.10877 48.1359 9.48926 50.4064C10.0387 50.7754 10.6153 51.1276 11.2158 51.464C10.529 49.4165 10.0049 47.2271 9.66895 44.9328C6.83399 44.233 4.49821 43.3753 2.83301 42.4074ZM53.4102 42.4064C51.7452 43.3742 49.4097 44.2302 46.5752 44.9298C46.2394 47.2248 45.7162 49.4151 45.0293 51.463C45.6291 51.1269 46.205 50.775 46.7539 50.4064C50.1347 48.1357 52.4065 45.3652 53.4102 42.4064ZM28.1221 33.1876C25.9134 33.1876 23.7725 33.2633 21.7275 33.4015C21.6139 35.1775 21.5537 37.0217 21.5537 38.9162C21.5537 40.8103 21.6139 42.6542 21.7275 44.4298C23.7725 44.5681 25.9134 44.6437 28.1221 44.6437C30.3301 44.6437 32.4703 44.5681 34.5146 44.4298C34.6283 42.6542 34.6885 40.8103 34.6885 38.9162C34.6885 37.0217 34.6283 35.1775 34.5146 33.4015C32.4703 33.2634 30.33 33.1877 28.1221 33.1876ZM19.4658 33.5841C16.6265 33.8513 14.0094 34.2439 11.7002 34.7365C11.5564 36.0945 11.4814 37.4904 11.4814 38.9162C11.4815 40.3412 11.5565 41.7365 11.7002 43.0939C14.0094 43.5866 16.6265 43.9798 19.4658 44.2472C19.362 42.5211 19.3066 40.7389 19.3066 38.9162L19.3184 37.4689C19.3393 36.1479 19.3896 34.8509 19.4658 33.5841ZM36.7754 33.5841C36.8793 35.3106 36.9355 37.0931 36.9355 38.9162L36.9238 40.3634C36.9028 41.6842 36.8516 42.9807 36.7754 44.2472C39.6151 43.9798 42.2325 43.5867 44.542 43.0939C44.6857 41.7364 44.7627 40.3413 44.7627 38.9162C44.7627 37.4904 44.6858 36.0946 44.542 34.7365C42.2325 34.2439 39.6151 33.8513 36.7754 33.5841ZM8.84961 35.4376C6.41506 36.128 4.60759 36.9082 3.46094 37.6769C2.89214 38.0583 2.56485 38.3859 2.39355 38.6232C2.31215 38.736 2.27613 38.8148 2.26074 38.8576C2.24754 38.8944 2.24707 38.9114 2.24707 38.9152C2.24707 38.9175 2.24689 38.9339 2.26074 38.9728C2.27604 39.0155 2.31199 39.0951 2.39355 39.2082C2.56483 39.4454 2.89234 39.7722 3.46094 40.1535C4.60755 40.9222 6.41495 41.7023 8.84961 42.3927C9.02639 42.4429 9.20668 42.4894 9.38867 42.5382C9.28625 41.3524 9.23439 40.1435 9.23438 38.9162L9.24023 38.1896C9.25691 37.2102 9.30736 36.2432 9.38965 35.2912C9.20723 35.3401 9.02679 35.3874 8.84961 35.4376ZM46.8525 35.2912C46.9551 36.478 47.0098 37.6878 47.0098 38.9162L47.0039 39.6418C46.9872 40.6206 46.9347 41.5868 46.8525 42.5382C47.0352 42.4893 47.2162 42.443 47.3936 42.3927C49.8282 41.7023 51.6356 40.9222 52.7822 40.1535C53.3511 39.772 53.6794 39.4454 53.8506 39.2082C53.9321 39.0951 53.9681 39.0155 53.9834 38.9728C53.9972 38.9341 53.9971 38.9175 53.9971 38.9152C53.9971 38.9114 53.9965 38.8943 53.9834 38.8576C53.968 38.8148 53.9319 38.7359 53.8506 38.6232C53.6793 38.3859 53.351 38.0583 52.7822 37.6769C51.6356 36.9082 49.828 36.128 47.3936 35.4376C47.2161 35.3873 47.0353 35.3401 46.8525 35.2912ZM45.0273 26.3673C45.7141 28.4146 46.2383 30.6036 46.5742 32.8976C49.4093 33.5972 51.7449 34.4561 53.4102 35.424C52.4063 32.4657 50.1342 29.6963 46.7539 27.4259C46.2044 27.0569 45.6279 26.7039 45.0273 26.3673ZM11.2139 26.3673C10.6138 26.7036 10.0383 27.0572 9.48926 27.4259C6.10926 29.6962 3.8367 32.4649 2.83301 35.423C4.49793 34.4554 6.83388 33.6001 9.66797 32.9005C10.0039 30.6057 10.5269 28.4153 11.2139 26.3673ZM20.8662 22.9464C18.4576 23.4044 16.2018 24.0846 14.1494 24.9425C13.2066 27.1978 12.4793 29.6988 12.0244 32.3781C14.3318 31.9205 16.8922 31.5576 19.6348 31.3117C19.9005 28.2863 20.3202 25.4672 20.8662 22.9464ZM35.375 22.9464C35.9211 25.4673 36.3407 28.2862 36.6064 31.3117C39.3493 31.5575 41.9101 31.9205 44.2178 32.3781C43.7629 29.6989 43.0366 27.1978 42.0938 24.9425C40.0408 24.0843 37.7843 23.4044 35.375 22.9464ZM28.1221 22.2755C26.4535 22.2755 24.826 22.3789 23.252 22.5744C22.6591 25.0971 22.1989 27.9891 21.9072 31.1378C23.9066 31.0099 25.9865 30.9406 28.1221 30.9406L29.5693 30.9513C31.1983 30.9747 32.7907 31.0391 34.335 31.1378C34.0433 27.9891 33.5831 25.0971 32.9902 22.5744C31.4169 22.379 29.7899 22.2756 28.1221 22.2755ZM18.1406 15.0373C11.8763 17.6588 6.86198 22.6729 4.24121 28.9376C6.34584 26.6704 9.14576 24.724 12.4414 23.2345C13.9303 19.9406 15.8746 17.1414 18.1406 15.0373ZM38.0986 15.0353C40.3662 17.14 42.3131 19.9396 43.8027 23.2355C47.0974 24.7248 49.8967 26.67 52.001 28.9367C49.3793 22.6711 44.3647 17.6561 38.0986 15.0353ZM24.1523 13.8009C21.3739 14.8795 18.7797 17.0856 16.6318 20.2834C16.2629 20.8327 15.9096 21.4086 15.5732 22.0089C17.4231 21.3884 19.389 20.9007 21.4434 20.5646C22.1952 17.7816 23.1148 15.4737 24.1523 13.8009ZM32.0908 13.8009C33.1283 15.4735 34.045 17.7819 34.7969 20.5646C36.8523 20.9007 38.8192 21.3881 40.6699 22.0089C40.3336 21.4087 39.9812 20.8326 39.6123 20.2834C37.4644 17.0854 34.8694 14.8795 32.0908 13.8009ZM28.1201 13.0412C27.9457 13.0419 27.3709 13.1602 26.4951 14.3419C25.6487 15.4844 24.7912 17.2809 24.0322 19.7023C23.9767 19.8794 23.9242 20.0599 23.8701 20.2423C25.2568 20.1011 26.6767 20.0285 28.1221 20.0285L28.8477 20.0343C30.0421 20.0547 31.2181 20.124 32.3711 20.2414C32.3172 20.0594 32.2654 19.879 32.21 19.7023C31.4509 17.2807 30.5936 15.4843 29.7471 14.3419C28.8687 13.1567 28.2935 13.0412 28.1211 13.0412H28.1201Z" fill="#4568DC"/>
<path d="M27.1394 36.0495C27.4058 35.3294 28.4243 35.3294 28.6908 36.0494L29.0676 37.0678C29.1514 37.2942 29.3299 37.4727 29.5563 37.5565L30.5746 37.9333C31.2947 38.1998 31.2947 39.2183 30.5746 39.4847L29.5563 39.8615C29.3299 39.9453 29.1514 40.1238 29.0676 40.3502L28.6908 41.3686C28.4243 42.0887 27.4058 42.0887 27.1394 41.3686L26.7625 40.3502C26.6788 40.1238 26.5003 39.9453 26.2739 39.8615L25.2555 39.4847C24.5354 39.2183 24.5354 38.1998 25.2555 37.9333L26.2739 37.5565C26.5003 37.4727 26.6788 37.2942 26.7625 37.0678L27.1394 36.0495Z" fill="#4568DC"/>
</svg>
